<?xml version="1.0" standalone="no"?>
<!DOCTYPE svg PUBLIC "-//W3C//DTD SVG 20010904//EN"
 "http://www.w3.org/TR/2001/REC-SVG-20010904/DTD/svg10.dtd">
<svg version="1.0" xmlns="http://www.w3.org/2000/svg"
 width="500.000000pt" height="500.000000pt" viewBox="0 0 500.000000 500.000000"
 preserveAspectRatio="xMidYMid meet">

<g transform="translate(0.000000,500.000000) scale(0.100000,-0.100000)"
fill="#000000" stroke="none">
<path d="M2581 3076 c-8 -9 -11 -86 -9 -257 l3 -244 40 0 40 0 3 213 2 212
520 0 520 0 0 -525 0 -525 -520 0 -520 0 0 169 c0 94 -3 172 -7 174 -5 2 -25
2 -45 0 l-38 -5 0 -208 c0 -180 2 -209 16 -214 9 -3 276 -6 594 -6 513 0 580
2 594 16 14 14 16 82 16 599 0 517 -2 585 -16 599 -14 14 -82 16 -598 16 -483
0 -586 -2 -595 -14z"/>
<path d="M1588 3005 c-194 -53 -355 -211 -416 -409 -10 -34 -15 -88 -15 -161
1 -173 48 -288 168 -408 110 -110 253 -169 406 -170 97 0 165 16 259 61 125
59 264 217 300 342 l9 30 -57 -1 -57 0 -29 -62 c-39 -82 -131 -174 -216 -215
-314 -152 -679 79 -680 429 0 229 177 432 410 470 191 32 405 -84 485 -263 29
-64 31 -66 70 -70 62 -7 74 -1 65 30 -4 15 -24 60 -44 101 -70 138 -216 256
-366 296 -67 18 -227 18 -292 0z"/>
<path d="M2756 2628 c-9 -12 -16 -26 -16 -31 0 -4 23 -33 51 -63 l52 -54 -410
0 c-430 0 -433 0 -433 -45 0 -45 3 -45 432 -45 224 0 408 -2 408 -5 0 -3 -22
-28 -50 -56 -27 -28 -50 -57 -50 -63 0 -17 33 -46 51 -46 23 0 209 192 209
216 0 24 -189 214 -213 214 -9 0 -23 -10 -31 -22z"/>
</g>
</svg>
